<svg id="add" xmlns="http://www.w3.org/2000/svg" width="41.289" height="41.289" viewBox="0 0 41.289 41.289">
  <path id="Path_599" data-name="Path 599" d="M24.515,0H4.731A4.728,4.728,0,0,0,0,4.731V31.4a4.728,4.728,0,0,0,4.731,4.731H16.068a15.021,15.021,0,0,1-1.445-6.451,14.554,14.554,0,0,1,1.1-5.608A14.179,14.179,0,0,1,17,21.573a15.186,15.186,0,0,1,4.266-4.37,13.24,13.24,0,0,1,2.8-1.48,14.072,14.072,0,0,1,5.178-1.084V4.731A4.728,4.728,0,0,0,24.515,0Z" fill="#eceff1"/>
  <path id="Path_600" data-name="Path 600" d="M14.623,0H4.731A4.728,4.728,0,0,0,0,4.731V31.4a4.728,4.728,0,0,0,4.731,4.731h9.892V0Z" fill="#cdd0d2"/>
  <path id="Path_601" data-name="Path 601" d="M22.112,33.725A11.612,11.612,0,1,1,33.725,22.112,11.625,11.625,0,0,1,22.112,33.725Z" transform="translate(7.564 7.564)" fill="#2196f3"/>
  <path id="Path_602" data-name="Path 602" d="M17.97,26.4a1.721,1.721,0,0,1-1.72-1.72V15.22a1.72,1.72,0,1,1,3.441,0v9.462A1.721,1.721,0,0,1,17.97,26.4Z" transform="translate(11.706 9.725)" fill="#fff"/>
  <path id="Path_603" data-name="Path 603" d="M24.682,19.691H15.22a1.72,1.72,0,1,1,0-3.441h9.462a1.72,1.72,0,1,1,0,3.441Z" transform="translate(9.725 11.706)" fill="#fff"/>
  <path id="Path_604" data-name="Path 604" d="M22.112,10.5a11.612,11.612,0,0,0,0,23.225V28.564a1.719,1.719,0,0,1-1.72-1.72V23.833H17.381a1.72,1.72,0,0,1,0-3.441h3.011V17.381a1.719,1.719,0,0,1,1.72-1.72Z" transform="translate(7.564 7.564)" fill="#1d83d4"/>
  <path id="Path_605" data-name="Path 605" d="M17.97,21.672H16.25v3.011a1.719,1.719,0,0,0,1.72,1.72Zm0-8.172a1.719,1.719,0,0,0-1.72,1.72v3.011h1.72Z" transform="translate(11.706 9.725)" fill="#dedede"/>
  <path id="Path_606" data-name="Path 606" d="M19.951,16.25H15.22a1.72,1.72,0,1,0,0,3.441h4.731Z" transform="translate(9.725 11.706)" fill="#dedede"/>
  <g id="Group_902" data-name="Group 902" transform="translate(5.161 6.881)">
    <path id="Path_607" data-name="Path 607" d="M21.924,9.72l-.017.241a13.24,13.24,0,0,0-2.8,1.48H4.72A1.72,1.72,0,1,1,4.72,8H20.2A1.725,1.725,0,0,1,21.924,9.72Z" transform="translate(-3 -1.119)" fill="#90a4ae"/>
    <path id="Path_608" data-name="Path 608" d="M14.836,12.929a14.179,14.179,0,0,0-1.273,2.495l-.241.017H4.72A1.72,1.72,0,1,1,4.72,12h8.6A1.7,1.7,0,0,1,14.836,12.929Z" transform="translate(-3 1.763)" fill="#90a4ae"/>
    <path id="Path_609" data-name="Path 609" d="M11.6,7.441H4.72A1.72,1.72,0,1,1,4.72,4H11.6a1.72,1.72,0,0,1,0,3.441Z" transform="translate(-3 -4)" fill="#90a4ae"/>
  </g>
  <path id="Path_610" data-name="Path 610" d="M21.924,9H3a1.725,1.725,0,0,0,1.72,1.72H19.1a13.24,13.24,0,0,1,2.8-1.48Z" transform="translate(2.161 6.483)" fill="#7d8f97"/>
  <path id="Path_611" data-name="Path 611" d="M14.363,13H3a1.725,1.725,0,0,0,1.72,1.72h8.6l.241-.017a14.515,14.515,0,0,1,.8-1.7Z" transform="translate(2.161 9.365)" fill="#7d8f97"/>
  <path id="Path_612" data-name="Path 612" d="M13.322,5H3A1.72,1.72,0,0,0,4.72,6.72H11.6A1.72,1.72,0,0,0,13.322,5Z" transform="translate(2.161 3.602)" fill="#7d8f97"/>
</svg>
