<svg xmlns="http://www.w3.org/2000/svg" width="30.442" height="30.442" viewBox="0 0 30.442 30.442">
  <g id="Group_100" data-name="Group 100" transform="translate(-1732.8 -603.6)">
    <path id="Path_113" data-name="Path 113" d="M1446.532,513.6a2.363,2.363,0,0,0,2.361,2.36h10.635a7,7,0,0,1,11.488-.516,2.38,2.38,0,0,0,.888-1.844v-5.7a2.363,2.363,0,0,0-2.361-2.36h-20.651a2.363,2.363,0,0,0-2.361,2.36Zm23.364,5.964a4.456,4.456,0,0,0-8.909,0ZM1459,530.906h12.91V522.1H1459ZM1448.9,503h20.651a4.905,4.905,0,0,1,4.895,4.895v5.7a4.919,4.919,0,0,1-2.262,4.126,6.7,6.7,0,0,1,.261,1.838c0,.106,1.826-.466,2,1.268v11.344a1.265,1.265,0,0,1-1.269,1.267H1457.73a1.266,1.266,0,0,1-1.269-1.267V520.831c.162-1.7,2-1.181,2-1.268a6.863,6.863,0,0,1,.086-1.069h-9.654A4.9,4.9,0,0,1,1444,513.6v-5.7A4.9,4.9,0,0,1,1448.9,503Z" transform="translate(288.8 100.6)" fill="#797979"/>
    <path id="Path_114" data-name="Path 114" d="M1464.1,508.4h.434a1.268,1.268,0,0,1,0,2.536h-.434a1.268,1.268,0,1,1,0-2.536Z" transform="translate(292.567 101.68)" fill="#797979"/>
    <path id="Path_115" data-name="Path 115" d="M1459.171,508.4h.436a1.268,1.268,0,0,1,0,2.536h-.436a1.268,1.268,0,0,1,0-2.536Z" transform="translate(291.581 101.68)" fill="#797979"/>
    <path id="Path_116" data-name="Path 116" d="M1454.251,508.4h.436a1.268,1.268,0,0,1,0,2.536h-.436a1.268,1.268,0,0,1,0-2.536Z" transform="translate(290.597 101.68)" fill="#797979"/>
    <path id="Path_117" data-name="Path 117" d="M1449.331,508.4h.434a1.268,1.268,0,1,1,0,2.536h-.434a1.268,1.268,0,0,1,0-2.536Z" transform="translate(289.613 101.68)" fill="#797979"/>
  </g>
</svg>
